<svg viewBox="0 0 20 20" fill="none" xmlns="http://www.w3.org/2000/svg">
    <path opacity="0.7" fill-rule="evenodd" clip-rule="evenodd" d="M17.5575 6.83347L10.5183 1.23597C10.3711 1.1186 10.1883 1.05469 10 1.05469C9.81168 1.05469 9.62894 1.1186 9.48167 1.23597L2.44167 6.83347C2.24546 6.98953 2.08699 7.18785 1.97805 7.41366C1.86912 7.63946 1.81253 7.88693 1.8125 8.13764V15.986C1.8125 16.5164 2.02321 17.0251 2.39829 17.4002C2.77336 17.7753 3.28207 17.986 3.8125 17.986H8.33333V14.026C8.33333 13.805 8.42113 13.593 8.57741 13.4367C8.73369 13.2804 8.94565 13.1926 9.16667 13.1926H10.8333C11.0543 13.1926 11.2663 13.2804 11.4226 13.4367C11.5789 13.593 11.6667 13.805 11.6667 14.026V17.986H16.1867C16.7171 17.986 17.2258 17.7753 17.6009 17.4002C17.976 17.0251 18.1867 16.5164 18.1867 15.986V8.13847C18.1866 7.88776 18.13 7.64029 18.0211 7.41449C17.9122 7.18869 17.7537 6.99037 17.5575 6.8343" fill="white"/>
</svg>
